HIERARCHY
ROOT SpineBase
{
  OFFSET 0.000000 0.000000 0.000000
  CHANNELS 6 Xposition Yposition Zposition Zrotation Xrotation Yrotation
  JOINT SpineMid
  {
    OFFSET 0.000000 34.379816 0.000000
    CHANNELS 3 Zrotation Xrotation Yrotation
    JOINT SpineShoulder
    {
      OFFSET -0.194005 25.978882 -0.642484
      CHANNELS 3 Zrotation Xrotation Yrotation
      JOINT Neck
      {
        OFFSET -0.196765 8.669677 -0.500046
        CHANNELS 3 Zrotation Xrotation Yrotation
        JOINT Head
        {
          OFFSET -0.441197 13.050178 1.885868
          CHANNELS 3 Zrotation Xrotation Yrotation
          End Site
          {
            OFFSET 0 0 0
          }
        }
      }
      JOINT ShoulderLeft
      {
        OFFSET -11.200428 -6.101928 -9.799930
        CHANNELS 3 Zrotation Xrotation Yrotation
        JOINT ElbowLeft
        {
          OFFSET -6.758625 -26.924075 0.247480
          CHANNELS 3 Zrotation Xrotation Yrotation
          JOINT WristLeft
          {
            OFFSET -5.819188 -24.143170 2.236949
            CHANNELS 3 Zrotation Xrotation Yrotation
            JOINT HandLeft
            {
              OFFSET 0.402343 -6.156430 -0.196487
              CHANNELS 3 Zrotation Xrotation Yrotation
              JOINT HandTipLeft
              {
                OFFSET 0.005888 -6.840659 -1.426418
                CHANNELS 3 Zrotation Xrotation Yrotation
                End Site
                {
                  OFFSET 0 0 0
                }
              }
              JOINT ThumbLeft
              {
                OFFSET -2.960343 -1.654155 -3.796076
                CHANNELS 3 Zrotation Xrotation Yrotation
                End Site
                {
                  OFFSET 0 0 0
                }
              }
            }
          }
        }
      }
      JOINT ShoulderRight
      {
        OFFSET 12.774220 -3.438998 -2.494746
        CHANNELS 3 Zrotation Xrotation Yrotation
        JOINT ElbowRight
        {
          OFFSET 12.124989 -26.307768 7.104095
          CHANNELS 3 Zrotation Xrotation Yrotation
          JOINT WristRight
          {
            OFFSET -32.452046 -12.190721 -8.785968
            CHANNELS 3 Zrotation Xrotation Yrotation
            JOINT HandRight
            {
              OFFSET -2.216888 -6.832580 -4.130429
              CHANNELS 3 Zrotation Xrotation Yrotation
              JOINT HandTipRight
              {
                OFFSET -6.845252 -9.661299 4.195338
                CHANNELS 3 Zrotation Xrotation Yrotation
                End Site
                {
                  OFFSET 0 0 0
                }
              }
              JOINT ThumbRight
              {
                OFFSET 6.193232 -5.180668 -6.195318
                CHANNELS 3 Zrotation Xrotation Yrotation
                End Site
                {
                  OFFSET 0 0 0
                }
              }
            }
          }
        }
      }
    }
  }
  JOINT HipLeft
  {
    OFFSET -8.333654 2.922372 -5.632299
    CHANNELS 3 Zrotation Xrotation Yrotation
    JOINT KneeLeft
    {
      OFFSET 4.064503 -35.910585 -1.034290
      CHANNELS 3 Zrotation Xrotation Yrotation
      JOINT AnkleLeft
      {
        OFFSET 0.515690 -36.919954 -1.051060
        CHANNELS 3 Zrotation Xrotation Yrotation
        JOINT FootLeft
        {
          OFFSET 1.694226 -2.477956 -14.137754
          CHANNELS 3 Zrotation Xrotation Yrotation
          End Site
          {
            OFFSET 0 0 0
          }
        }
      }
    }
  }
  JOINT HipRight
  {
    OFFSET 6.241303 0.593957 -0.080163
    CHANNELS 3 Zrotation Xrotation Yrotation
    JOINT KneeRight
    {
      OFFSET 8.952684 -40.654147 5.666153
      CHANNELS 3 Zrotation Xrotation Yrotation
      JOINT AnkleRight
      {
        OFFSET 3.285743 -32.901172 3.130539
        CHANNELS 3 Zrotation Xrotation Yrotation
        JOINT FootRight
        {
          OFFSET -12.799665 1.533210 -9.615739
          CHANNELS 3 Zrotation Xrotation Yrotation
          End Site
          {
            OFFSET 0 0 0
          }
        }
      }
    }
  }
}
MOTION
Frames: 13
Frame Time: 0.033333
90.602269 76.585584 254.473993 -0.359084 -0.037209 -21.574171 0.320247 0.166638 21.573589 -0.000000 0.000000 0.000000 -1.703193 -3.558975 0.073232 0.000000 0.000000 0.000000 -1.276366 -0.897450 0.202976 0.618782 -7.870710 1.778484 9.916322 -2.935115 -3.612835 -10.998806 -5.950713 2.424861 0.000000 0.000000 0.000000 0.000000 0.000000 0.000000 -26.320283 8.407117 -1.586572 42.544067 -10.653159 13.877367 -34.156069 -15.470399 13.314457 47.391920 34.145393 -49.979327 0.000000 0.000000 0.000000 0.000000 0.000000 0.000000 0.839318 -0.530103 21.473773 0.720307 1.983121 0.068711 -0.548554 -5.089224 -6.151984 0.000000 0.000000 0.000000 -0.273490 0.776907 21.706062 0.325972 -0.786558 -0.125347 0.792891 -0.620993 -0.189755 0.000000 0.000000 0.000000
90.573390 76.596790 254.476447 -0.364182 -0.032399 -21.599904 0.326682 0.164186 21.599333 -0.000000 0.000000 0.000000 -1.659257 -3.337751 0.078945 0.000000 0.000000 0.000000 -1.050964 -0.530890 0.118460 0.541484 -7.000567 1.602310 10.634751 -4.827420 -3.157181 -12.836281 -4.538629 2.935640 0.000000 0.000000 0.000000 0.000000 0.000000 0.000000 -33.941053 11.036009 -1.155281 54.202895 -11.843467 17.112350 -34.640444 -15.199812 12.513092 46.072899 36.615258 -50.292682 0.000000 0.000000 0.000000 0.000000 0.000000 0.000000 0.897837 -0.523525 21.496956 0.635403 1.985760 0.073374 -0.696583 -4.183378 -3.913960 0.000000 0.000000 0.000000 0.326682 0.164186 21.599333 -0.000000 0.000000 0.000000 0.752114 -0.626417 -0.466805 0.000000 0.000000 0.000000
90.562580 76.593425 254.479273 -0.354963 -0.031808 -21.613411 0.318291 0.160318 21.612867 -0.000000 0.000000 0.000000 -1.485483 -3.051329 0.072238 0.000000 0.000000 0.000000 -0.804860 -0.121766 0.022273 0.469228 -6.325417 1.473570 11.708692 -6.924548 -2.721738 -15.420549 -2.142580 3.743411 0.000000 0.000000 0.000000 0.000000 0.000000 0.000000 -36.704700 12.185512 -0.696652 58.523586 -12.332628 18.033656 -34.291031 -15.682846 12.306831 45.008195 38.009020 -50.270549 0.000000 0.000000 0.000000 0.000000 0.000000 0.000000 0.884448 -0.511891 21.512244 0.616941 1.917339 0.072408 -0.940303 -3.079865 -1.251901 0.000000 0.000000 0.000000 0.318291 0.160318 21.612867 -0.000000 0.000000 0.000000 0.568596 -0.515327 -0.685749 0.000000 0.000000 0.000000
90.530118 76.582014 254.463575 -0.373600 0.007500 -21.696308 0.349906 0.131145 21.695932 -0.000000 0.000000 0.000000 -1.470465 -3.033604 0.071288 0.000000 0.000000 0.000000 -0.000000 0.000000 0.000000 -0.332019 -5.594695 1.295740 10.794295 -8.268583 -2.324761 -14.872651 1.127162 3.915191 0.000000 0.000000 0.000000 0.000000 0.000000 0.000000 -34.732450 12.279178 -0.170852 54.959246 -13.057915 16.682277 -32.970020 -16.863183 12.662424 44.040274 37.839005 -49.492032 0.000000 0.000000 0.000000 0.000000 0.000000 0.000000 0.962087 -0.563633 21.590583 0.568305 1.905797 0.077952 -0.739159 -3.835977 -3.168629 0.000000 0.000000 0.000000 0.349906 0.131145 21.695932 -0.000000 0.000000 0.000000 0.250753 -0.287538 -0.799967 0.000000 0.000000 0.000000
90.500233 76.573868 254.428172 -0.383482 0.052607 -21.841699 0.375526 0.093842 21.841568 -0.000000 0.000000 0.000000 -1.207979 -2.588516 0.059968 0.000000 0.000000 0.000000 -0.426590 0.689141 -0.174196 0.420776 -5.462097 1.323666 8.783629 -9.571316 -2.001277 -12.545135 4.083298 3.608096 0.000000 0.000000 0.000000 0.000000 0.000000 0.000000 -33.797742 11.328441 -0.851839 53.118109 -11.839374 14.718443 -32.252973 -17.280795 13.474735 41.917736 37.579607 -48.057922 0.000000 0.000000 0.000000 0.000000 0.000000 0.000000 1.083027 -0.675620 21.723871 0.474535 1.994310 0.092534 -0.615688 -1.898102 -2.008893 0.000000 0.000000 0.000000 0.375526 0.093842 21.841568 -0.000000 0.000000 0.000000 -0.000000 0.000000 0.000000 0.000000 0.000000 0.000000
90.472476 76.556509 254.378362 -0.370483 0.073548 -21.975321 0.371088 0.070433 21.975331 -0.000000 0.000000 0.000000 -1.164072 -2.430159 0.061573 0.000000 0.000000 0.000000 -0.322333 1.002656 -0.251683 0.456439 -5.402801 1.332722 8.050704 -10.737561 -1.869934 -11.704411 7.977885 3.622361 0.000000 0.000000 0.000000 0.000000 0.000000 0.000000 -30.122209 9.755590 -1.392951 47.520589 -10.643925 11.961388 -31.532889 -18.179752 14.562777 41.046947 37.021808 -47.595592 0.000000 0.000000 0.000000 0.000000 0.000000 0.000000 1.148028 -0.780455 21.846362 0.424515 2.040726 0.104780 -0.608248 -2.264217 -2.297327 0.000000 0.000000 0.000000 0.371088 0.070433 21.975331 -0.000000 0.000000 0.000000 -0.459669 0.259818 -0.748516 0.000000 0.000000 0.000000
90.423518 76.544372 254.316920 -0.375870 0.089536 -22.077584 0.381963 0.058305 22.077684 -0.000000 0.000000 0.000000 -1.050590 -2.482047 0.045294 0.000000 0.000000 0.000000 -0.303679 1.187917 -0.297681 0.542839 -5.575584 1.392506 8.219864 -10.893114 -1.863523 -12.389469 9.912022 3.887446 0.000000 0.000000 0.000000 0.000000 0.000000 0.000000 -27.126828 8.604600 -1.625960 42.802488 -9.732691 9.904515 -30.792831 -18.888615 15.330479 40.033965 36.159948 -46.614875 0.000000 0.000000 0.000000 0.000000 0.000000 0.000000 1.235805 -0.859103 21.938264 0.374304 2.057827 0.115652 -0.930571 -6.822935 -4.921211 0.000000 0.000000 0.000000 0.381963 0.058305 22.077684 -0.000000 0.000000 0.000000 -0.649347 0.412251 -0.675788 0.000000 0.000000 0.000000
90.380529 76.505067 254.258585 -0.325484 0.013579 -21.787651 0.307274 0.108199 21.787399 -0.000000 0.000000 0.000000 -0.788691 -2.437323 0.014833 0.000000 0.000000 0.000000 -0.349596 1.390034 -0.347695 0.392517 -5.863466 1.434458 8.713467 -11.502534 -1.871033 -13.310361 13.371375 4.382287 0.000000 0.000000 0.000000 0.000000 0.000000 0.000000 -23.603802 7.413694 -1.684285 36.962642 -8.746496 7.841600 -29.085708 -19.911103 15.755201 37.895862 35.404550 -44.880003 0.000000 0.000000 0.000000 0.000000 0.000000 0.000000 1.176532 -0.756684 21.650925 0.341138 1.913857 0.111510 -1.427534 -10.959554 -7.413863 0.000000 0.000000 0.000000 0.307274 0.108199 21.787399 -0.000000 0.000000 0.000000 -0.809852 0.556911 -0.467822 0.000000 0.000000 0.000000
90.337520 76.522939 254.190002 -0.266465 -0.045852 -22.104466 0.229627 0.142751 22.104073 -0.000000 0.000000 0.000000 -0.359820 -2.508194 -0.040823 0.000000 0.000000 0.000000 -0.492201 1.476852 -0.368573 0.278958 -6.252153 1.489910 9.434518 -11.085865 -1.964720 -13.643955 14.187412 4.381903 0.000000 0.000000 0.000000 0.000000 0.000000 0.000000 -29.511531 9.214017 -1.706494 45.445523 -9.675846 9.961042 -29.043212 -20.645517 15.471915 35.115027 36.313108 -42.804402 0.000000 0.000000 0.000000 0.000000 0.000000 0.000000 1.191759 -0.840062 21.950890 0.312578 1.965475 0.126982 -1.462174 -11.194387 -7.829871 0.000000 0.000000 0.000000 0.229627 0.142751 22.104073 -0.000000 0.000000 0.000000 -0.902042 0.619661 -0.532409 0.000000 0.000000 0.000000
90.287823 76.553936 254.123630 -0.168718 -0.161532 -22.653377 0.093488 0.214052 22.652965 0.172195 -0.914324 -0.009441 0.027927 -1.457884 -0.096265 0.000000 0.000000 0.000000 -0.744845 2.371697 -0.342144 0.238310 -6.619761 1.558561 9.229588 -10.763807 -2.120152 -12.691781 12.917500 4.030320 0.000000 0.000000 0.000000 0.000000 0.000000 0.000000 -40.302143 13.062876 -0.654432 61.726602 -10.620508 14.754555 -29.974877 -21.054564 14.520892 30.763357 38.695685 -39.966132 0.000000 0.000000 0.000000 0.000000 0.000000 0.000000 1.191981 -0.944388 22.474756 0.278521 2.103868 0.150237 -2.453703 -16.613772 -11.170321 0.000000 0.000000 0.000000 0.093488 0.214052 22.652965 -0.000000 0.000000 0.000000 -0.989469 0.678832 -0.598069 0.000000 0.000000 0.000000
90.211297 76.620701 254.055191 -0.064444 -0.326393 -23.542609 0.558800 -0.363815 23.543728 -0.034388 -0.254083 -0.010365 0.551109 -0.965343 -0.178159 0.000000 0.000000 0.000000 -0.962578 2.469918 -0.305685 0.287234 -7.041804 1.647082 9.357443 -9.915821 -2.337692 -12.781876 11.515662 3.972759 0.000000 0.000000 0.000000 0.000000 0.000000 0.000000 -45.177729 14.771004 0.223333 69.532666 -11.003626 17.654255 -30.185448 -21.440950 13.587439 28.121148 40.127779 -37.985477 0.000000 0.000000 0.000000 0.000000 0.000000 0.000000 1.244047 -1.082524 23.327299 0.198202 2.366813 0.186836 -3.250807 -19.960380 -13.429988 0.000000 0.000000 0.000000 -0.071292 0.324966 23.542628 -0.000000 0.000000 0.000000 -0.600754 0.406075 -0.402103 0.000000 0.000000 0.000000
90.107205 76.734850 253.989290 0.023009 -0.532353 -24.887297 0.610781 -0.415938 24.889217 -0.045391 -0.276266 -0.012078 1.459987 0.667355 -0.305699 0.000000 0.000000 0.000000 -1.061777 2.519735 -0.235447 0.011186 -7.333213 1.664622 11.800617 -9.046631 -2.558191 -15.174079 9.863112 4.294441 0.000000 0.000000 0.000000 0.000000 0.000000 0.000000 -56.703770 18.008232 2.349427 88.756678 -9.964069 24.054138 -29.992983 -22.496215 11.061949 21.720421 45.932204 -34.430265 0.000000 0.000000 0.000000 0.000000 0.000000 0.000000 1.391912 -1.244440 24.623182 0.040806 2.737158 0.239661 -3.378264 -20.518811 -13.956391 0.000000 0.000000 0.000000 -0.244911 0.473233 24.888415 -0.000000 0.000000 0.000000 -1.146881 0.689428 -1.627908 0.000000 0.000000 0.000000
90.000719 76.854687 253.928313 0.109469 -0.766222 -26.345326 0.648122 -0.460311 26.347881 -0.060716 -0.299829 -0.014722 2.002433 1.297181 -0.409451 0.000000 0.000000 0.000000 -1.133041 2.656417 -0.180377 -0.210047 -7.661772 1.701508 13.283369 -8.300547 -2.802217 -17.074440 8.273858 4.649646 0.000000 0.000000 0.000000 0.000000 0.000000 0.000000 -61.067583 19.297645 3.714220 96.419627 -9.214959 26.978372 -28.804465 -23.712264 9.265566 16.755465 49.211130 -31.034108 0.000000 0.000000 0.000000 0.000000 0.000000 0.000000 1.559451 -1.401078 26.029151 -0.110916 3.193611 0.297431 -2.081874 -15.019870 -10.543741 0.000000 0.000000 0.000000 -0.386752 1.569818 26.590445 -0.463063 -0.810197 -0.246211 -1.010610 0.525695 -2.166666 0.000000 0.000000 0.000000
